<svg id="Capa_1" enable-background="new 0 0 512 512" height="512" viewBox="0 0 512 512" width="512" xmlns="http://www.w3.org/2000/svg"><g><path d="m237.415 85.725h18.585v-18.585c0-24.66-19.991-44.651-44.651-44.651h-14.585c-2.209 0-4 1.791-4 4v14.585c0 24.66 19.991 44.651 44.651 44.651z" fill="#b3e59f"/><g><path d="m256 93.452c-1.977 0-3.955-.755-5.463-2.263l-26.608-26.608c-3.018-3.018-3.018-7.91 0-10.928 3.017-3.016 7.909-3.016 10.926 0l26.608 26.608c3.018 3.018 3.018 7.909 0 10.928-1.508 1.508-3.486 2.263-5.463 2.263z" fill="#78c2a4"/></g><g><path d="m274.585 63.236h-18.585v-18.585c0-24.66 19.991-44.651 44.651-44.651h14.585c2.209 0 4 1.791 4 4v14.585c0 24.66-19.991 44.651-44.651 44.651z" fill="#b3e59f"/><g><path d="m256.003 70.963c-2.136 0-4.26-.88-5.788-2.605-2.829-3.194-2.532-8.077.663-10.906l26.515-23.477c3.195-2.829 8.077-2.53 10.906.663 2.829 3.194 2.532 8.077-.663 10.906l-26.515 23.477c-1.469 1.302-3.298 1.942-5.118 1.942z" fill="#78c2a4"/></g></g><g><g><path d="m256 151.512c-4.267 0-7.726-3.459-7.726-7.726v-80.805c0-4.268 3.459-7.726 7.726-7.726s7.726 3.459 7.726 7.726v80.805c0 4.267-3.459 7.726-7.726 7.726z" fill="#78c2a4"/></g></g><g fill="#edbb87"><path d="m453.017 385.524-55.062 11.933-8.324-38.409 55.062-11.933c10.606-2.299 21.068 4.436 23.367 15.043 2.299 10.605-4.436 21.067-15.043 23.366z"/><path d="m58.983 385.524 55.062 11.933 8.324-38.409-55.062-11.933c-10.606-2.299-21.068 4.436-23.367 15.043-2.298 10.605 4.436 21.067 15.043 23.366z"/></g><g><path d="m445.622 303.557c0 104.725-84.897 189.622-189.622 189.622s-174.622-84.896-174.622-189.622c0-41.873-1.427-80.576 21.558-111.95 26.993-36.844 66.968-63.579 113.188-73.472 6.429-1.376 12.978 12.574 19.63 11.868s13.407-16.068 20.246-16.068c63.655 0 104.985 31.366 139.376 79.485 16.263 22.755 42.62 49.256 47.527 77.959 1.788 10.459 2.719 21.21 2.719 32.178z" fill="#9dc6fb"/><path d="m324.861 126.834c53.931 33.434 89.856 93.152 89.856 161.271 0 104.725-84.897 189.622-189.622 189.622-24.292 0-47.514-4.575-68.861-12.898 28.982 17.967 63.159 28.351 99.766 28.351 104.725 0 189.622-84.897 189.622-189.622 0-10.969-.931-21.72-2.719-32.178-3.954-23.127-27.096-44.825-38.618-64.284-21.478-36.273-39.698-64.771-79.424-80.262z" fill="#80b4fb"/><path d="m442.849 271.388c-15.285-89.395-93.095-157.453-186.849-157.453-13.68 0-27.01 1.482-39.869 4.234 3.783 15.23 7.643 33.118 11.118 54.223 5.683 34.515 8.065 63.782 24.512 69.078 16.018 5.159 29.037-17.682 51.252-13.37 18.639 3.618 21.251 21.983 37.882 35.653 22.558 18.545 64.996 23.585 101.954 7.635z" fill="#b3e59f"/><path d="m414.503 279.531c9.527-1.481 19.108-4.156 28.347-8.143-11.541-66.02-56.468-120.578-117.949-144.529 51.632 32.027 86.728 88.156 89.602 152.672z" fill="#95d6a4"/><path d="m145.115 240.6c-5.947-19.192-22.259-37.053-42.15-48.972-22.986 31.374-36.587 70.056-36.587 111.929 0 50.464 19.751 96.288 51.897 130.263 23.787-15.812 40.835-41.269 42.448-64.099 1.073-15.184-5.566-16.622-11.351-46.824-8.663-45.222 2.967-58.984-4.257-82.297z" fill="#b3e59f"/><path d="m191.679 481.97c20.086 7.243 41.738 11.209 64.321 11.209 56.015 0 106.34-24.302 141.052-62.921-12.674-18.794-31.792-36.252-42.602-46.115-14.984-13.671-50.703-46.261-72.731-35.704-17.223 8.254-8.809 34.611-23.803 68.764-15.605 35.545-44.995 53.204-66.237 64.767z" fill="#b3e59f"/><path d="m397.051 430.259c.001-.001.001-.001 0 0-6.363-9.44-13.965-18.104-21.869-26.271-38.46 50.887-106.051 81.019-173.435 72.305-3.31 1.953-6.703 3.844-10.069 5.677 20.086 7.243 41.738 11.209 64.321 11.209 56.015 0 106.34-24.302 141.052-62.92z" fill="#95d6a4"/></g><path d="m381.274 374.142c7.04-7.04 18.455-7.04 25.496 0l30.595 30.595c7.041 7.04 7.041 18.455 0 25.496-7.04 7.04-18.455 7.04-25.496 0l-30.595-30.595c-7.04-7.041-7.04-18.455 0-25.496z" fill="#f1d0a4"/><path d="m440.342 411.476c-7.04 7.04-18.455 7.04-25.496 0l-30.595-30.595c-1.703-1.703-2.985-3.666-3.864-5.757-6.122 7.083-5.838 17.789.887 24.514l30.595 30.595c7.04 7.04 18.455 7.04 25.496 0 5.337-5.337 6.619-13.185 3.864-19.738-.287.332-.572.666-.887.981z" fill="#edbb87"/><path d="m344.852 388.711c7.04-7.04 18.455-7.04 25.496 0l52.448 52.448c7.04 7.04 7.04 18.455 0 25.496-7.04 7.04-18.455 7.04-25.496 0l-52.448-52.448c-7.041-7.041-7.041-18.455 0-25.496z" fill="#f1d0a4"/><path d="m423.79 447.898c-7.04 7.04-18.455 7.04-25.496 0l-52.448-52.448c-1.267-1.267-2.297-2.679-3.108-4.178-4.824 7.022-4.128 16.694 2.113 22.935l52.448 52.448c7.04 7.04 18.455 7.04 25.496 0 5.773-5.774 6.804-14.485 3.108-21.318-.617.9-1.313 1.762-2.113 2.561z" fill="#edbb87"/><path d="m319.356 414.207c7.04-7.04 18.455-7.04 25.496 0l52.448 52.448c7.04 7.04 7.04 18.455 0 25.496-7.04 7.04-18.455 7.04-25.496 0l-52.448-52.448c-7.04-7.041-7.04-18.456 0-25.496z" fill="#f1d0a4"/><path d="m397.3 473.394c-7.04 7.04-18.455 7.04-25.496 0l-52.448-52.448c-1.035-1.035-1.899-2.173-2.63-3.369-4.239 6.941-3.375 16.121 2.63 22.126l52.448 52.448c7.041 7.04 18.455 7.04 25.496 0 6.005-6.005 6.87-15.185 2.63-22.126-.731 1.196-1.595 2.334-2.63 3.369z" fill="#edbb87"/><path d="m304.787 450.629c7.04-7.04 18.455-7.04 25.496 0l30.595 30.595c7.04 7.04 7.04 18.455 0 25.496-7.04 7.04-18.455 7.04-25.496 0l-30.595-30.595c-7.04-7.041-7.04-18.455 0-25.496z" fill="#f1d0a4"/><path d="m338.469 487.881-30.595-30.595c-1.711-1.711-2.997-3.682-3.877-5.784-6.221 7.081-5.97 17.863.789 24.622l30.595 30.595c7.04 7.04 18.455 7.04 25.496 0 5.33-5.33 6.617-13.164 3.877-19.712-6.847 7.799-18.952 8.227-26.285.874z" fill="#edbb87"/><path d="m130.726 374.142c-7.041-7.04-18.455-7.04-25.496 0l-30.595 30.595c-7.041 7.04-7.041 18.455 0 25.496 7.04 7.04 18.455 7.04 25.496 0l30.595-30.595c7.04-7.041 7.04-18.455 0-25.496z" fill="#f1d0a4"/><path d="m131.781 375.31c-.727 1.184-1.585 2.31-2.61 3.335l-30.594 30.595c-7.04 7.04-18.455 7.04-25.495 0-.375-.375-.72-.769-1.056-1.168-4.263 6.945-3.405 16.145 2.61 22.16 7.04 7.04 18.455 7.04 25.496 0l30.595-30.595c6.664-6.664 7.009-17.244 1.054-24.327z" fill="#edbb87"/><path d="m167.148 388.711c-7.04-7.04-18.455-7.04-25.496 0l-52.448 52.448c-7.041 7.04-7.041 18.455 0 25.496 7.04 7.04 18.455 7.04 25.496 0l52.448-52.448c7.041-7.041 7.041-18.455 0-25.496z" fill="#f1d0a4"/><path d="m167.148 393.774-52.448 52.448c-7.04 7.04-18.455 7.04-25.496 0-.791-.79-1.479-1.643-2.092-2.531-4.846 7.024-4.158 16.714 2.092 22.964 7.04 7.04 18.455 7.04 25.496 0l52.448-52.448c6.25-6.25 6.938-15.94 2.092-22.964-.613.888-1.301 1.74-2.092 2.531z" fill="#edbb87"/><path d="m192.644 414.207c-7.041-7.04-18.455-7.04-25.496 0l-52.448 52.448c-7.04 7.04-7.04 18.455 0 25.496 7.04 7.04 18.455 7.04 25.496 0l52.448-52.448c7.04-7.041 7.04-18.456 0-25.496z" fill="#f1d0a4"/><path d="m192.928 414.52c-.758 1.284-1.667 2.504-2.77 3.607l-52.448 52.448c-7.04 7.04-18.455 7.04-25.496 0-.101-.101-.186-.211-.284-.314-4.077 6.912-3.167 15.952 2.77 21.889 7.04 7.04 18.455 7.04 25.496 0l52.448-52.448c6.94-6.939 7.025-18.12.284-25.182z" fill="#edbb87"/><path d="m207.213 450.629c-7.04-7.04-18.455-7.04-25.496 0l-30.595 30.595c-7.04 7.04-7.04 18.455 0 25.496 7.04 7.04 18.455 7.04 25.496 0l30.595-30.595c7.04-7.041 7.04-18.455 0-25.496z" fill="#f1d0a4"/><path d="m176.618 485.549c-7.04 7.04-18.455 7.04-25.496 0-.679-.679-1.273-1.41-1.821-2.162-5.134 7.05-4.541 16.972 1.821 23.333 7.04 7.04 18.455 7.04 25.496 0l30.595-30.595c6.361-6.361 6.954-16.283 1.821-23.333-1.685 2.425-30.236 30.577-32.416 32.757z" fill="#edbb87"/></g></svg>